<svg width="110" height="55" viewBox="0 0 110 55" fill="none" xmlns="http://www.w3.org/2000/svg">
<path d="M0 6.875C0 3.07804 4.10406 0 9.16667 0H100.833C105.896 0 110 3.07804 110 6.875V48.125C110 51.922 105.896 55 100.833 55H9.16666C4.10405 55 0 51.922 0 48.125V6.875Z" fill="white"/>
<path d="M85.2739 43.1895C89.4987 43.1895 91.4872 41.9805 93.2241 38.3157L100.833 22.309H96.4277L91.3251 34.6928H91.2356L86.133 22.3257H81.6025L88.9434 37.5609L88.5501 38.4876C88.2725 39.814 86.6846 40.7603 84.8974 40.6625C84.5564 40.6625 83.8948 40.6359 83.6264 40.6094V43.1253C84.1725 43.1812 84.7241 43.2077 85.2739 43.2063V43.1895ZM70.5922 35.1736C68.2813 35.1736 66.8146 34.335 66.8146 33.0658C66.8146 31.7506 68.2291 30.9846 70.9332 30.863L75.7489 30.6352V31.8177C75.6426 33.7661 73.4491 35.2826 70.8512 35.203C70.7636 35.2002 70.6779 35.1946 70.5922 35.189V35.1736ZM69.4293 37.6574C72.0514 37.7105 74.5039 36.6859 75.8215 34.9849H75.911V37.5008H79.9215V27.0808C79.9215 24.0589 76.6993 22.1119 71.7383 22.1119C67.137 22.1119 63.734 24.0855 63.6092 26.7985H67.5135C67.9794 25.4189 69.7275 24.509 71.6135 24.6627C74.2635 24.6627 75.7489 25.5894 75.7489 27.2946V28.4492L70.3443 28.691C65.3125 28.9188 62.5916 30.4633 62.5916 33.1497C62.5879 35.8739 65.3982 37.6727 69.4274 37.6727L69.4293 37.6574ZM46.1879 19.3011H51.1825C54.9433 19.3011 57.092 20.805 57.092 23.4509C57.092 26.0968 54.9433 27.6133 51.1657 27.6133H46.1879V19.3011ZM41.855 16.5615V37.4966H46.1879V30.3599H52.187C57.0734 30.5569 61.2461 27.7461 61.5088 24.0813C61.5238 23.873 61.5256 23.6662 61.5144 23.4579C61.7455 19.8336 58.0164 16.7558 53.184 16.5811C52.8989 16.5713 52.6156 16.5727 52.3305 16.5825L41.855 16.5615ZM27.4734 20.4682C24.9835 20.3605 22.8534 21.529 21.6719 21.529C20.4903 21.529 18.664 20.5227 16.6941 20.5506C14.085 20.601 11.707 21.6842 10.4454 23.3978C7.75986 26.8628 9.7465 31.9924 12.3425 34.8116C13.6135 36.2093 15.138 37.7398 17.1414 37.6853C19.0386 37.6322 19.7915 36.7586 22.0837 36.7586C24.376 36.7586 25.0562 37.6853 27.0615 37.6574C29.1376 37.6308 30.4458 36.2596 31.7206 34.8619C32.6188 33.8723 33.3177 32.7891 33.7967 31.6472C31.3497 30.8449 29.7638 29.0376 29.7507 27.0347C29.788 25.268 31.0217 23.6382 33.027 22.7115C31.7485 21.3501 29.6967 20.5143 27.4771 20.4556L27.4734 20.4682ZM25.9191 18.619C24.8289 19.6491 23.1609 20.2403 21.4072 20.2166C21.2954 18.9335 21.8769 17.6713 23.0193 16.7125C24.1561 15.7229 25.7588 15.1023 27.492 14.9807C27.615 16.3002 27.0503 17.6028 25.9154 18.6148" fill="black"/>
</svg>
