<svg width="110" height="55" viewBox="0 0 110 55" fill="none" xmlns="http://www.w3.org/2000/svg">
<path d="M0 6.875C0 3.07804 4.10406 0 9.16667 0H100.833C105.896 0 110 3.07804 110 6.875V48.125C110 51.922 105.896 55 100.833 55H9.16666C4.10405 55 0 51.922 0 48.125V6.875Z" fill="white"/>
<path d="M82.5 27.5087C82.4942 38.9002 70.1755 48.1305 54.9884 48.125C39.8013 48.1206 27.4942 38.8827 27.5 27.4913C27.5058 16.1042 39.8143 6.87609 54.9971 6.875C70.1857 6.87391 82.4985 16.1086 82.5 27.5V27.5087Z" fill="black"/>
<path d="M60.0131 23.4991C60.0131 26.1348 54.4959 25.8272 52.7402 25.8272V21.1689C54.4959 21.1667 60.0058 20.7478 60.0058 23.4969L60.0131 23.4991ZM61.4589 30.745C61.4589 33.6414 54.8479 33.312 52.7388 33.3131V28.177C54.8479 28.1759 61.4604 27.721 61.4604 30.7429L61.4589 30.745ZM65.811 22.454C65.4575 19.6907 62.2764 18.7645 58.2618 18.5005V14.6681H55.1519V18.4001C54.3344 18.4001 53.4981 18.4121 52.6675 18.4252V14.6692H49.5591V18.5005C48.8856 18.5103 48.2238 18.5201 47.5794 18.5201V18.5081H43.2885V21.0031C43.2885 21.0031 45.5852 20.9704 45.5474 21.0031C46.4158 20.9191 47.2144 21.3751 47.3365 22.0253V26.389C47.4456 26.389 47.5562 26.3944 47.6653 26.4053H47.3365V32.5222C47.3002 32.9771 46.7809 33.3229 46.1758 33.2956H46.1729C46.2122 33.3218 43.9125 33.2956 43.9125 33.2956L43.2943 36.0818H47.3424C48.0958 36.0818 48.8362 36.0917 49.5635 36.096V39.9721H52.6704V36.1364C53.5228 36.1495 54.349 36.1549 55.1548 36.1549V39.9732H58.2603V36.1037C63.4967 35.8789 67.1506 34.8905 67.6044 31.2076C67.971 28.2414 66.1106 26.9181 63.1433 26.3835C65.12 25.681 66.2153 24.0664 65.811 22.454Z" fill="white"/>
</svg>
