<svg width="50" height="50" viewBox="0 0 50 50" fill="none" xmlns="http://www.w3.org/2000/svg">
<circle cx="25" cy="25" r="25" fill="white"/>
<path d="M30.8315 25.3242C27.6153 24.3997 25.2716 23.2669 23.8002 21.9258C22.3419 20.5716 21.6127 18.9049 21.6127 16.9258C21.6127 14.6862 22.5047 12.8372 24.2885 11.3789C26.0854 9.90755 28.4161 9.17188 31.2807 9.17188C33.2338 9.17188 34.9721 9.54948 36.4955 10.3047C38.032 11.0599 39.2169 12.1016 40.0502 13.4297C40.8966 14.7578 41.3198 16.2096 41.3198 17.7852H37.5502C37.5502 16.0664 37.0034 14.7188 35.9096 13.7422C34.8159 12.7526 33.2729 12.2578 31.2807 12.2578C29.4317 12.2578 27.9864 12.668 26.9448 13.4883C25.9161 14.2956 25.4018 15.4219 25.4018 16.8672C25.4018 18.026 25.8901 19.0091 26.8666 19.8164C27.8562 20.6107 29.5294 21.3398 31.8862 22.0039C34.256 22.668 36.1049 23.4036 37.433 24.2109C38.7742 25.0052 39.7638 25.9362 40.4018 27.0039C41.0528 28.0716 41.3784 29.3281 41.3784 30.7734C41.3784 33.0781 40.4799 34.9271 38.683 36.3203C36.8862 37.7005 34.4838 38.3906 31.476 38.3906C29.5229 38.3906 27.7 38.0195 26.0073 37.2773C24.3146 36.5221 23.006 35.4935 22.0815 34.1914C21.17 32.8893 20.7143 31.4115 20.7143 29.7578H24.4838C24.4838 31.4766 25.1153 32.8372 26.3784 33.8398C27.6544 34.8294 29.3536 35.3242 31.476 35.3242C33.4552 35.3242 34.9721 34.9206 36.0268 34.1133C37.0815 33.306 37.6088 32.2057 37.6088 30.8125C37.6088 29.4193 37.1205 28.3451 36.144 27.5898C35.1674 26.8216 33.3966 26.0664 30.8315 25.3242Z" fill="black"/>
<path d="M18.3984 25.7528C15.1823 24.8283 12.8385 23.6955 11.3672 22.3544C9.90885 21.0002 9.17969 19.3335 9.17969 17.3544C9.17969 15.1148 10.0716 13.2658 11.8555 11.8075C13.6523 10.3361 15.9831 9.60046 18.8477 9.60046C20.8008 9.60046 22.5391 9.97807 24.0625 10.7333C25.599 11.4885 26.7839 12.5302 27.6172 13.8583C28.4635 15.1864 28.8867 16.6382 28.8867 18.2137H25.1172C25.1172 16.495 24.5703 15.1473 23.4766 14.1708C22.3828 13.1812 20.8398 12.6864 18.8477 12.6864C16.9987 12.6864 15.5534 13.0966 14.5117 13.9169C13.4831 14.7242 12.9688 15.8505 12.9688 17.2958C12.9688 18.4546 13.457 19.4377 14.4336 20.245C15.4232 21.0393 17.0964 21.7684 19.4531 22.4325C21.8229 23.0966 23.6719 23.8322 25 24.6395C26.3411 25.4338 27.3307 26.3648 27.9688 27.4325C28.6198 28.5002 28.9453 29.7567 28.9453 31.202C28.9453 33.5067 28.0469 35.3557 26.25 36.7489C24.4531 38.1291 22.0508 38.8192 19.043 38.8192C17.0898 38.8192 15.2669 38.4481 13.5742 37.7059C11.8815 36.9507 10.5729 35.9221 9.64844 34.62C8.73698 33.3179 8.28125 31.84 8.28125 30.1864H12.0508C12.0508 31.9052 12.6823 33.2658 13.9453 34.2684C15.2214 35.258 16.9206 35.7528 19.043 35.7528C21.0221 35.7528 22.5391 35.3492 23.5938 34.5419C24.6484 33.7346 25.1758 32.6343 25.1758 31.2411C25.1758 29.8479 24.6875 28.7736 23.7109 28.0184C22.7344 27.2502 20.9635 26.495 18.3984 25.7528Z" fill="black"/>
</svg>
