<svg width="110" height="54" viewBox="0 0 110 54" fill="none" xmlns="http://www.w3.org/2000/svg">
<g clip-path="url(#clip0)">
<path d="M0 6.875C0 3.07804 4.10406 0 9.16667 0H100.833C105.896 0 110 3.07804 110 6.875V48.125C110 51.922 105.896 55 100.833 55H9.16666C4.10405 55 0 51.922 0 48.125V6.875Z" fill="white"/>
<path d="M94.6686 16.934H88.9059C87.1637 16.934 85.8236 17.3287 85.0195 18.6116L74.0302 37.0655H81.8031C81.8031 37.0655 83.1433 34.5984 83.4113 34.0063C84.2154 34.0063 91.8543 34.0063 92.9264 34.0063C93.1944 34.6971 93.8645 36.9669 93.8645 36.9669H100.833L94.6686 16.934ZM85.5556 29.8616C86.2256 28.6774 88.5039 24.2366 88.5039 24.2366C88.5039 24.3353 89.174 23.0524 89.442 22.3616L89.9781 24.1379C89.9781 24.1379 91.4522 28.9734 91.7203 29.9603H85.5556V29.8616Z" fill="black"/>
<path d="M74.5663 30.4539C74.5663 34.5986 69.4737 37.3617 61.5668 37.3617C58.2164 37.3617 55 36.8683 53.2578 36.2762L54.3299 31.7367L55.268 32.0328C57.6803 32.8223 59.2885 33.1183 62.2369 33.1183C64.3811 33.1183 66.6594 32.5262 66.6594 31.1446C66.6594 30.2565 65.7213 29.6644 62.7729 28.6775C59.9586 27.6907 56.2062 26.1117 56.2062 23.2499C56.2062 19.3025 61.4328 16.6381 68.8036 16.6381C71.6179 16.6381 74.0302 17.0328 75.5044 17.5262L74.4323 21.8683L73.8962 21.4736C72.5561 21.0789 70.8138 20.6841 68.2676 20.6841C65.4532 20.7828 64.1131 21.671 64.1131 22.4604C64.1131 23.3486 65.7213 24.0394 68.2676 24.9275C72.5561 26.4078 74.5663 28.0854 74.5663 30.4539Z" fill="black"/>
<path d="M9.16669 17.1317L9.3007 16.7369H20.826C22.4342 16.7369 23.6404 17.1317 24.0424 18.4146L26.5887 27.2961C24.0424 22.5593 18.1457 18.7106 9.16669 17.1317Z" fill="#787878"/>
<path d="M42.8047 16.9341L31.1454 36.967H23.2384L16.5377 20.1907C21.3622 22.4604 25.3827 26.0131 26.8569 28.4802L27.661 30.5526L34.8978 16.8354H42.8047V16.9341Z" fill="black"/>
<path d="M45.8869 16.8354H53.2578L48.5672 36.967H41.1964L45.8869 16.8354Z" fill="black"/>
</g>
<defs>
<clipPath id="clip0">
<rect width="110" height="54" fill="white"/>
</clipPath>
</defs>
</svg>
