<svg width="25" height="25" viewBox="0 0 25 25" fill="none" xmlns="http://www.w3.org/2000/svg">
<circle cx="12.5" cy="12.5" r="12.5" fill="white"/>
<path d="M18.6289 15.697C18.6289 15.6451 18.577 15.6451 18.577 15.5933C18.3694 15.1781 17.9024 14.6593 17.2797 14.0885C16.9684 13.829 16.8127 13.6215 16.7089 13.5177C16.5533 13.3101 16.5533 13.1545 16.6052 12.9469C16.6571 12.7912 16.8646 12.5318 17.2278 12.0648C17.4354 11.8053 17.5392 11.6497 17.6948 11.494C18.4732 10.4562 18.8364 9.78165 18.7326 9.47031L18.6807 9.41843C18.6289 9.36654 18.577 9.31465 18.4732 9.31465C18.3694 9.26276 18.2137 9.26276 18.0581 9.31465H16.0863C16.0344 9.31465 16.0344 9.31465 15.9306 9.31465C15.8787 9.31465 15.8268 9.31465 15.8268 9.31465H15.7749H15.723L15.6712 9.36654C15.6193 9.41843 15.6193 9.41842 15.6193 9.47031C15.4117 10.0411 15.1523 10.5081 14.8928 11.027C14.7371 11.2864 14.5815 11.5459 14.4258 11.7534C14.2701 11.961 14.1664 12.1167 14.0626 12.2205C13.9588 12.3242 13.855 12.3761 13.8031 12.4799C13.7512 12.5318 13.6475 12.5837 13.6475 12.5318C13.5956 12.5318 13.5437 12.5318 13.5437 12.4799C13.4918 12.428 13.4399 12.3761 13.388 12.3242C13.3361 12.2723 13.3361 12.1686 13.2842 12.0648C13.2842 11.961 13.2842 11.8572 13.2842 11.8053C13.2842 11.7534 13.2842 11.5978 13.2842 11.494C13.2842 11.3383 13.2842 11.2346 13.2842 11.1827C13.2842 11.027 13.2842 10.8194 13.2842 10.6119C13.2842 10.4043 13.2842 10.2487 13.2842 10.1449C13.2842 10.0411 13.2842 9.88543 13.2842 9.78165C13.2842 9.62599 13.2842 9.5222 13.2842 9.47031C13.2842 9.41842 13.2324 9.31465 13.2324 9.26276C13.1805 9.21087 13.1286 9.15898 13.0767 9.10709C13.0248 9.0552 12.921 9.0552 12.8691 9.00331C12.6097 8.95142 12.2984 8.89954 11.9351 8.89954C11.1049 8.89954 10.5341 8.95143 10.3266 9.05521C10.2228 9.1071 10.119 9.15898 10.0671 9.26276C9.96333 9.36654 9.96333 9.41843 10.0152 9.41843C10.2747 9.47032 10.4822 9.57409 10.586 9.72976L10.6379 9.83355C10.6898 9.88543 10.6898 9.98921 10.7417 10.1449C10.7936 10.3005 10.7936 10.4562 10.7936 10.6638C10.7936 10.9751 10.7936 11.2864 10.7936 11.494C10.7936 11.7534 10.7417 11.9091 10.7417 12.0648C10.7417 12.2204 10.6898 12.3242 10.6379 12.3761C10.586 12.4799 10.586 12.5318 10.5341 12.5318C10.5341 12.5318 10.5341 12.5837 10.4822 12.5837C10.4303 12.5837 10.3784 12.6356 10.2747 12.6356C10.2228 12.6356 10.119 12.5837 10.0671 12.5318C9.96333 12.4799 9.85956 12.3761 9.80767 12.2723C9.70389 12.1686 9.60011 12.0129 9.49633 11.8053C9.39255 11.5978 9.23687 11.3902 9.1331 11.0789L9.02933 10.8713C8.97744 10.7676 8.87366 10.56 8.76988 10.3005C8.6661 10.0411 8.56232 9.83355 8.45854 9.5741C8.40665 9.47032 8.35477 9.41843 8.30288 9.36654H8.25099C8.25099 9.36654 8.19909 9.31465 8.1472 9.31465C8.09531 9.31465 8.04343 9.26276 7.99154 9.26276H6.12352C5.91596 9.26276 5.81219 9.31465 5.7603 9.36654L5.7084 9.41843C5.7084 9.41843 5.7084 9.47032 5.7084 9.52221C5.7084 9.5741 5.70841 9.62598 5.7603 9.72976C6.01974 10.3524 6.33108 10.9751 6.64241 11.5978C6.95375 12.1686 7.26509 12.6875 7.47265 13.0507C7.73209 13.4139 7.93965 13.7771 8.19909 14.0885C8.45854 14.3998 8.61421 14.6074 8.66609 14.7111C8.76987 14.8149 8.82176 14.8668 8.87365 14.9187L9.02933 15.0744C9.13311 15.1781 9.28877 15.3338 9.49633 15.4895C9.70388 15.6451 9.96333 15.8008 10.2228 15.9565C10.4822 16.1121 10.7936 16.2159 11.1049 16.3197C11.4681 16.4235 11.7795 16.4754 12.0908 16.4235H12.8691C13.0248 16.4235 13.1286 16.3716 13.2324 16.2678L13.2842 16.2159C13.2842 16.164 13.3361 16.164 13.3361 16.1121C13.3361 16.0603 13.3361 16.0084 13.3361 15.9046C13.3361 15.697 13.3361 15.5414 13.388 15.3857C13.4399 15.23 13.4399 15.1263 13.4918 15.0225C13.5437 14.9187 13.5956 14.8668 13.6475 14.8149C13.6994 14.763 13.7513 14.7111 13.7513 14.7111H13.8031C13.9069 14.6593 14.0626 14.7111 14.1664 14.8149C14.322 14.9187 14.4777 15.0744 14.5815 15.23C14.6853 15.3857 14.8409 15.5414 15.0485 15.7489C15.256 15.9565 15.4117 16.1122 15.5155 16.164L15.6712 16.2678C15.7749 16.3197 15.8787 16.3716 16.0344 16.4235C16.1901 16.4754 16.2938 16.4754 16.3976 16.4754L18.1619 16.4235C18.3175 16.4235 18.4732 16.3716 18.577 16.3197C18.6807 16.2678 18.7326 16.2159 18.7326 16.1121C18.7326 16.0603 18.7326 15.9565 18.7326 15.9046C18.6288 15.8008 18.6289 15.7489 18.6289 15.697Z" fill="black"/>
</svg>
